<?xml version="1.0" standalone="no"?>
<!DOCTYPE svg PUBLIC "-//W3C//DTD SVG 20010904//EN"
 "http://www.w3.org/TR/2001/REC-SVG-20010904/DTD/svg10.dtd">
<svg version="1.0" xmlns="http://www.w3.org/2000/svg"
 width="465.000000pt" height="147.000000pt" viewBox="0 0 465.000000 147.000000"
 preserveAspectRatio="xMidYMid meet">

<g transform="translate(0.000000,147.000000) scale(0.100000,-0.100000)"
fill="#000000" stroke="none">
<path d="M0 735 l0 -735 2325 0 2325 0 0 735 0 735 -2325 0 -2325 0 0 -735z
m4571 689 c59 -30 59 -25 59 -689 0 -651 0 -653 -51 -689 -22 -15 -208 -16
-2252 -16 l-2229 0 -34 34 -34 34 2 640 c3 624 4 640 23 662 11 12 29 26 40
31 11 4 1016 8 2233 8 1990 1 2216 -1 2243 -15z"/>
<path d="M3950 1213 c-55 -20 -69 -90 -25 -119 22 -14 32 -15 66 -5 69 21 81
98 18 120 -35 12 -37 12 -59 4z"/>
<path d="M2092 1157 c-6 -7 -15 -82 -21 -167 -6 -85 -14 -190 -17 -232 -10
-121 19 -164 113 -162 89 2 136 107 48 109 -18 0 -20 7 -19 75 0 41 4 137 9
212 7 126 7 140 -10 158 -21 23 -86 28 -103 7z"/>
<path d="M4188 1128 c-9 -7 -19 -34 -22 -60 -6 -38 -11 -47 -31 -52 -49 -13
-61 -85 -15 -96 l25 -6 -4 -115 c-3 -91 0 -122 12 -146 21 -41 83 -66 139 -56
95 15 121 108 31 108 l-38 0 -3 81 c-4 102 7 134 46 134 44 0 74 26 70 63 -3
30 -5 32 -50 35 l-48 3 0 44 c0 34 -5 47 -22 59 -27 19 -68 21 -90 4z"/>
<path d="M1818 1029 c-112 -13 -183 -104 -182 -234 1 -88 31 -142 97 -174 102
-49 237 -7 237 75 0 47 -22 61 -59 35 -18 -13 -45 -21 -69 -21 -35 0 -41 4
-56 34 -30 63 -10 157 36 175 29 11 58 -12 58 -46 0 -15 8 -27 23 -34 59 -27
111 43 87 116 -20 60 -78 85 -172 74z"/>
<path d="M2852 1032 c-46 -5 -116 -76 -134 -134 -7 -23 -12 -77 -12 -118 1
-83 17 -125 60 -159 46 -36 144 -24 183 23 12 14 16 12 41 -14 50 -54 126 -48
151 11 11 27 9 32 -15 58 l-27 28 11 109 c13 145 14 141 -15 169 -28 28 -75
33 -99 10 -18 -19 -25 -19 -45 -1 -20 17 -56 23 -99 18z m108 -121 c13 -25 13
-121 0 -155 -12 -32 -53 -59 -78 -52 -57 19 -54 181 5 215 28 16 61 13 73 -8z"/>
<path d="M3490 1033 c-52 -7 -68 -13 -93 -39 l-26 -26 -27 31 c-22 26 -33 31
-70 31 -74 0 -111 -62 -63 -106 19 -17 20 -25 13 -155 -7 -135 -7 -136 17
-153 24 -17 75 -21 95 -8 7 4 17 63 24 131 12 126 26 173 55 185 26 9 34 7 55
-14 19 -19 20 -29 14 -133 l-7 -113 29 -33 c39 -42 89 -51 127 -21 34 27 37
74 6 91 -21 11 -21 16 -14 119 7 112 -2 159 -37 188 -21 17 -67 29 -98 25z"/>
<path d="M2430 1017 c-57 -30 -78 -50 -104 -96 -95 -176 23 -361 205 -322 65
14 109 52 109 93 0 38 -20 44 -69 19 -46 -24 -60 -25 -96 -9 -35 16 -31 25 13
37 49 14 126 63 147 95 38 57 11 150 -52 180 -41 19 -119 21 -153 3z m88 -96
c8 -4 12 -21 10 -36 -2 -22 -13 -34 -48 -51 -25 -13 -48 -20 -52 -16 -12 13 4
61 29 87 27 27 40 30 61 16z"/>
<path d="M3907 1018 c-13 -10 -20 -37 -27 -118 -5 -58 -9 -135 -10 -172 0 -60
3 -71 28 -98 39 -44 92 -51 126 -17 32 32 34 72 5 87 -20 11 -20 17 -14 148 5
108 4 141 -7 155 -17 23 -78 32 -101 15z"/>
<path d="M3984 459 c-3 -6 -2 -15 4 -21 15 -15 46 -5 50 15 3 12 -3 17 -22 17
-14 0 -28 -5 -32 -11z"/>
<path d="M1806 433 c-3 -16 -6 -59 -8 -97 -2 -56 0 -71 14 -80 23 -14 26 -9
35 55 6 39 13 55 26 57 14 3 17 -4 17 -41 0 -61 8 -77 35 -77 28 0 42 17 26
33 -6 6 -11 32 -11 57 0 25 -5 51 -12 58 -16 16 -51 15 -67 0 -10 -11 -12 -8
-10 12 7 51 -35 71 -45 23z"/>
<path d="M2672 431 c-9 -17 -20 -31 -24 -31 -5 0 -8 -9 -8 -20 0 -11 4 -20 10
-20 5 0 8 -24 7 -52 -2 -48 0 -53 21 -56 19 -3 22 1 22 30 0 50 10 77 31 83
25 8 24 35 -1 35 -30 0 -24 18 8 22 42 5 35 32 -11 36 -33 3 -39 -1 -55 -27z"/>
<path d="M3585 448 c-3 -8 -7 -54 -8 -104 l-2 -89 29 -3 c38 -5 57 15 33 33
-15 11 -17 25 -15 91 3 68 1 79 -15 82 -9 2 -19 -3 -22 -10z"/>
<path d="M1635 440 c-9 -15 4 -30 27 -30 18 0 20 -5 18 -67 -4 -90 -3 -93 19
-93 21 0 31 35 31 111 0 45 2 49 24 49 20 0 36 16 36 36 0 9 -149 3 -155 -6z"/>
<path d="M2195 398 c-10 -82 -3 -142 17 -146 12 -2 19 5 24 22 4 17 13 26 26
26 28 0 78 54 78 84 0 42 -32 66 -89 66 l-50 0 -6 -52z m93 -15 c2 -14 -4 -26
-17 -32 -25 -14 -35 0 -27 35 8 31 40 29 44 -3z"/>
<path d="M3087 443 c-4 -3 -7 -13 -7 -21 0 -8 -8 -21 -17 -29 -13 -10 -15 -16
-5 -19 7 -4 12 -25 12 -53 0 -26 5 -52 12 -59 14 -14 68 -16 68 -2 0 6 0 13 0
18 0 4 -6 7 -12 7 -8 0 -14 16 -16 38 -3 32 0 38 22 47 31 11 34 30 6 30 -13
0 -20 7 -20 19 0 10 -7 22 -16 25 -19 7 -19 7 -27 -1z"/>
<path d="M3254 426 c-23 -36 -11 -72 32 -98 25 -15 32 -24 24 -32 -7 -7 -19
-7 -41 1 -25 10 -31 9 -36 -3 -15 -40 69 -61 115 -28 40 27 26 70 -31 99 -12
6 -23 18 -25 28 -5 23 34 23 47 0 9 -17 11 -17 28 0 28 27 6 51 -50 55 -40 3
-48 0 -63 -22z"/>
<path d="M3877 444 c-4 -4 -7 -14 -7 -22 0 -8 -8 -21 -17 -28 -15 -12 -16 -15
-3 -23 9 -7 13 -24 11 -54 -3 -51 14 -70 56 -65 29 3 41 33 13 33 -32 0 -23
79 10 88 26 7 26 27 1 27 -13 0 -21 8 -23 22 -3 23 -27 35 -41 22z"/>
<path d="M2013 398 c-46 -23 -54 -116 -12 -139 28 -14 80 -7 93 13 14 23 2 32
-23 18 -12 -6 -26 -8 -32 -4 -7 4 1 12 19 20 41 17 54 43 39 75 -14 27 -49 34
-84 17z m47 -37 c0 -13 -29 -35 -37 -28 -7 8 15 37 28 37 5 0 9 -4 9 -9z"/>
<path d="M2394 398 c-45 -21 -58 -94 -23 -129 25 -25 86 -23 103 3 14 23 2 32
-23 18 -12 -6 -26 -8 -32 -4 -6 3 5 13 23 22 24 13 34 25 36 47 6 46 -35 67
-84 43z m46 -37 c0 -11 -29 -35 -35 -29 -10 9 7 38 21 38 8 0 14 -4 14 -9z"/>
<path d="M2503 394 c-3 -9 -1 -19 5 -23 5 -3 9 -31 9 -61 -2 -50 0 -55 21 -58
18 -3 22 1 22 21 0 13 3 39 6 56 6 27 11 31 33 29 20 -2 27 2 29 20 4 27 -22
40 -44 22 -11 -10 -18 -10 -26 -2 -17 17 -48 15 -55 -4z"/>
<path d="M2785 385 c-31 -30 -34 -93 -7 -118 33 -30 102 -19 102 14 0 17 -3
18 -20 9 -36 -19 -42 1 -8 24 38 25 46 56 23 80 -24 23 -62 20 -90 -9z m55
-30 c0 -8 -2 -15 -4 -15 -2 0 -12 -3 -21 -7 -15 -5 -16 -3 -6 15 13 25 31 29
31 7z"/>
<path d="M2935 385 c-31 -30 -34 -93 -7 -118 22 -20 73 -22 90 -5 22 22 13 36
-20 34 -29 -1 -33 2 -36 28 -5 39 15 57 33 32 17 -23 45 -14 45 13 0 44 -68
54 -105 16z"/>
<path d="M3434 398 c-44 -21 -58 -94 -24 -128 23 -23 76 -26 102 -6 23 17 40
64 32 90 -16 51 -59 69 -110 44z m61 -48 c8 -26 -12 -62 -33 -58 -21 4 -28 44
-12 64 17 20 38 18 45 -6z"/>
<path d="M3668 404 c-9 -8 3 -127 15 -141 5 -7 19 -13 31 -13 12 0 28 6 35 13
11 10 14 10 18 0 6 -16 49 -17 58 -3 4 6 2 17 -5 25 -7 9 -9 30 -5 57 5 34 3
47 -9 57 -22 18 -29 9 -41 -52 -7 -36 -15 -53 -27 -55 -15 -3 -18 4 -18 45 0
48 -12 73 -35 73 -7 0 -14 -3 -17 -6z"/>
<path d="M3987 403 c-3 -5 -8 -34 -12 -66 -7 -63 3 -87 36 -87 23 0 34 17 20
34 -7 8 -9 31 -5 61 5 35 3 49 -7 56 -17 11 -27 11 -32 2z"/>
<path d="M4086 389 c-21 -16 -26 -29 -26 -63 0 -51 22 -76 69 -76 44 0 81 38
81 85 0 68 -68 98 -124 54z m69 -59 c0 -29 -4 -36 -22 -38 -20 -3 -23 1 -23
31 0 38 7 49 30 45 10 -2 15 -15 15 -38z"/>
<path d="M4237 403 c-3 -5 -2 -39 2 -78 5 -61 8 -70 26 -70 16 0 21 8 25 47
10 83 51 93 48 12 -1 -49 10 -68 38 -62 17 3 19 11 15 68 -2 36 -8 71 -13 78
-13 15 -50 16 -65 1 -8 -8 -17 -8 -31 0 -24 13 -39 14 -45 4z"/>
</g>
</svg>
